<svg width="928" height="928" viewBox="0 0 928 928" fill="none" xmlns="http://www.w3.org/2000/svg">
<g clip-path="url(#clip0_14_305)">
<g filter="url(#filter0_d_14_305)">
<g filter="url(#filter1_d_14_305)">
<path d="M853.643 732.396C853.643 732.396 530.952 802.196 341.283 702.576C151.613 602.957 74.357 195.605 74.357 195.605C74.357 195.605 400.351 127.539 590.02 227.158C779.69 326.778 853.643 732.396 853.643 732.396Z" fill="#005CB9" style="fill:#005CB9;fill:color(display-p3 0.0000 0.3608 0.7255);fill-opacity:1;"/>
<path d="M589.046 229.021C636.015 253.69 675.959 297.388 709.465 349.269C742.958 401.131 769.921 461.02 790.989 517.865C812.053 574.701 827.203 628.438 837.087 667.97C842.028 687.734 845.652 703.943 848.04 715.207C849.234 720.839 850.119 725.235 850.705 728.22C850.902 729.228 851.064 730.076 851.194 730.756C850.727 730.852 850.18 730.968 849.555 731.094C847.155 731.579 843.606 732.279 839.02 733.134C829.848 734.844 816.527 737.176 799.946 739.666C766.781 744.645 720.59 750.249 668.486 752.743C564.185 757.737 436.572 750.25 342.257 700.714C295.288 676.044 255.136 632.237 221.319 580.19C187.515 528.163 160.139 468.056 138.659 410.993C117.182 353.939 101.62 299.983 91.4263 260.288C86.3302 240.443 82.5769 224.166 80.0987 212.855C78.8596 207.199 77.9391 202.784 77.3289 199.786C77.1244 198.781 76.9574 197.935 76.8223 197.255C77.2919 197.162 77.8406 197.052 78.4671 196.93C80.8914 196.457 84.4761 195.776 89.1075 194.945C98.3706 193.282 111.822 191.016 128.558 188.608C162.033 183.791 208.638 178.404 261.155 176.126C366.287 171.565 494.728 179.482 589.046 229.021Z" stroke="black" stroke-opacity="0.4" style="stroke:black;stroke-opacity:0.4;" stroke-width="4.20369"/>
</g>
<g filter="url(#filter2_d_14_305)">
<path d="M824.848 705.592C824.848 705.592 589.324 756.537 450.889 683.827C312.454 611.117 256.066 313.801 256.066 313.801C256.066 313.801 494.001 264.122 632.437 336.831C770.872 409.541 824.848 705.592 824.848 705.592Z" fill="#F7941D" style="fill:#F7941D;fill:color(display-p3 0.9686 0.5804 0.1137);fill-opacity:1;"/>
<path d="M631.462 338.693C665.622 356.635 694.712 388.44 719.14 426.265C743.556 464.071 763.218 507.741 778.587 549.208C793.952 590.666 805.003 629.867 812.213 658.707C815.818 673.124 818.462 684.948 820.204 693.164C821.075 697.271 821.72 700.477 822.147 702.654C822.242 703.137 822.324 703.57 822.397 703.951C822.197 703.992 821.982 704.038 821.752 704.084C820.003 704.438 817.416 704.948 814.072 705.571C807.383 706.818 797.666 708.52 785.571 710.336C761.379 713.968 727.685 718.056 689.68 719.875C613.574 723.519 520.561 718.047 451.863 681.965C417.702 664.023 388.461 632.137 363.806 594.19C339.164 556.264 319.2 512.434 303.53 470.807C287.864 429.19 276.511 389.83 269.074 360.871C265.357 346.394 262.619 334.52 260.811 326.27C259.908 322.145 259.237 318.926 258.792 316.74C258.694 316.261 258.61 315.83 258.534 315.452C258.733 315.412 258.947 315.37 259.175 315.325C260.942 314.981 263.555 314.485 266.933 313.879C273.688 312.666 283.499 311.014 295.707 309.257C320.126 305.743 354.123 301.813 392.431 300.151C469.144 296.824 562.762 302.61 631.462 338.693Z" stroke="black" stroke-opacity="0.4" style="stroke:black;stroke-opacity:0.4;" stroke-width="4.20369"/>
</g>
<g filter="url(#filter3_d_14_305)">
<path d="M783.883 667.14C783.883 667.14 639.068 698.465 553.949 653.758C468.83 609.051 434.16 426.242 434.16 426.242C434.16 426.242 580.457 395.696 665.576 440.403C750.695 485.109 783.883 667.14 783.883 667.14Z" fill="#F2B900" style="fill:#F2B900;fill:color(display-p3 0.9476 0.7265 0.0000);fill-opacity:1;"/>
<path d="M664.602 442.265C685.433 453.206 703.226 472.634 718.208 495.832C733.177 519.011 745.243 545.802 754.68 571.267C764.114 596.723 770.902 620.796 775.33 638.509C777.544 647.363 779.167 654.623 780.237 659.666C780.771 662.187 781.167 664.154 781.429 665.489C781.429 665.491 781.43 665.494 781.431 665.496C780.378 665.707 778.926 665.993 777.109 666.331C773.004 667.097 767.039 668.141 759.613 669.256C744.758 671.486 724.068 673.996 700.734 675.113C653.969 677.352 596.963 673.976 554.923 651.896C534.091 640.954 516.205 621.476 501.083 598.202C485.975 574.949 473.723 548.058 464.1 522.495C454.481 496.941 447.508 472.769 442.941 454.983C440.658 446.092 438.977 438.8 437.867 433.736C437.313 431.209 436.903 429.237 436.63 427.897C437.693 427.692 439.156 427.416 440.985 427.087C445.13 426.343 451.153 425.329 458.649 424.25C473.644 422.092 494.52 419.679 518.041 418.659C565.179 416.614 622.559 420.183 664.602 442.265Z" stroke="black" stroke-opacity="0.25" style="stroke:black;stroke-opacity:0.25;" stroke-width="4.20369"/>
</g>
</g>
</g>
<defs>
<filter id="filter0_d_14_305" x="-88.7851" y="7.8999" width="1113.98" height="945.83" filterUnits="userSpaceOnUse" color-interpolation-filters="sRGB">
<feFlood flood-opacity="0" result="BackgroundImageFix"/>
<feColorMatrix in="SourceAlpha" type="matrix" values="0 0 0 0 0 0 0 0 0 0 0 0 0 0 0 0 0 0 127 0" result="hardAlpha"/>
<feOffset dx="4.20369" dy="16.8148"/>
<feGaussianBlur stdDeviation="8.40738"/>
<feComposite in2="hardAlpha" operator="out"/>
<feColorMatrix type="matrix" values="0 0 0 0 0 0 0 0 0 0 0 0 0 0 0 0 0 0 0.25 0"/>
<feBlend mode="normal" in2="BackgroundImageFix" result="effect1_dropShadow_14_305"/>
<feBlend mode="normal" in="SourceGraphic" in2="effect1_dropShadow_14_305" result="shape"/>
</filter>
<filter id="filter1_d_14_305" x="28.9571" y="135.917" width="828.049" height="632.02" filterUnits="userSpaceOnUse" color-interpolation-filters="sRGB">
<feFlood flood-opacity="0" result="BackgroundImageFix"/>
<feColorMatrix in="SourceAlpha" type="matrix" values="0 0 0 0 0 0 0 0 0 0 0 0 0 0 0 0 0 0 127 0" result="hardAlpha"/>
<feOffset dx="-21.0184" dy="-12.6111"/>
<feGaussianBlur stdDeviation="12.1907"/>
<feComposite in2="hardAlpha" operator="out"/>
<feColorMatrix type="matrix" values="0 0 0 0 0 0 0 0 0 0 0 0 0 0 0 0 0 0 0.25 0"/>
<feBlend mode="normal" in2="BackgroundImageFix" result="effect1_dropShadow_14_305"/>
<feBlend mode="normal" in="SourceGraphic" in2="effect1_dropShadow_14_305" result="shape"/>
</filter>
<filter id="filter2_d_14_305" x="219.074" y="272.855" width="605.774" height="450.086" filterUnits="userSpaceOnUse" color-interpolation-filters="sRGB">
<feFlood flood-opacity="0" result="BackgroundImageFix"/>
<feColorMatrix in="SourceAlpha" type="matrix" values="0 0 0 0 0 0 0 0 0 0 0 0 0 0 0 0 0 0 127 0" result="hardAlpha"/>
<feOffset dx="-33.6295" dy="-21.0184"/>
<feGaussianBlur stdDeviation="1.68148"/>
<feComposite in2="hardAlpha" operator="out"/>
<feColorMatrix type="matrix" values="0 0 0 0 0 0 0 0 0 0 0 0 0 0 0 0 0 0 0.25 0"/>
<feBlend mode="normal" in2="BackgroundImageFix" result="effect1_dropShadow_14_305"/>
<feBlend mode="normal" in="SourceGraphic" in2="effect1_dropShadow_14_305" result="shape"/>
</filter>
<filter id="filter3_d_14_305" x="408.938" y="399.242" width="374.946" height="278.565" filterUnits="userSpaceOnUse" color-interpolation-filters="sRGB">
<feFlood flood-opacity="0" result="BackgroundImageFix"/>
<feColorMatrix in="SourceAlpha" type="matrix" values="0 0 0 0 0 0 0 0 0 0 0 0 0 0 0 0 0 0 127 0" result="hardAlpha"/>
<feOffset dx="-25.2221" dy="-16.8148"/>
<feComposite in2="hardAlpha" operator="out"/>
<feColorMatrix type="matrix" values="0 0 0 0 0 0 0 0 0 0 0 0 0 0 0 0 0 0 0.25 0"/>
<feBlend mode="normal" in2="BackgroundImageFix" result="effect1_dropShadow_14_305"/>
<feBlend mode="normal" in="SourceGraphic" in2="effect1_dropShadow_14_305" result="shape"/>
</filter>
<clipPath id="clip0_14_305">
<rect width="928" height="928" fill="white" style="fill:white;fill-opacity:1;"/>
</clipPath>
</defs>
</svg>
