<svg width="418" height="77" viewBox="0 0 418 77" fill="none" xmlns="http://www.w3.org/2000/svg">
<mask id="mask0_13_128" style="mask-type:alpha" maskUnits="userSpaceOnUse" x="258" y="16" width="45" height="61">
<path d="M260.091 76.8468C258.987 76.8468 258.091 75.9514 258.091 74.8468V18.8468C258.091 17.7422 258.987 16.8468 260.091 16.8468H272.467C273.572 16.8468 274.467 17.7422 274.467 18.8468V61.3897C274.467 62.4942 275.363 63.3897 276.467 63.3897H300.091C301.196 63.3897 302.091 64.2851 302.091 65.3897V74.8468C302.091 75.9514 301.196 76.8468 300.091 76.8468H260.091Z" fill="black"/>
</mask>
<g mask="url(#mask0_13_128)">
<path d="M258.091 77.8468V60.8468H276.791H302.091V77.8468H258.091Z" fill="#F9C301"/>
<path d="M258.091 16.8468H274.591V42.7718V61.3468L258.091 77.8468V16.8468Z" fill="#F7941D"/>
</g>
<mask id="mask1_13_128" style="mask-type:alpha" maskUnits="userSpaceOnUse" x="308" y="16" width="45" height="61">
<path d="M310.091 76.8468C308.987 76.8468 308.091 75.9514 308.091 74.8468V18.8468C308.091 17.7422 308.987 16.8468 310.091 16.8468H322.467C323.572 16.8468 324.467 17.7422 324.467 18.8468V61.3897C324.467 62.4942 325.363 63.3897 326.467 63.3897H350.091C351.196 63.3897 352.091 64.2851 352.091 65.3897V74.8468C352.091 75.9514 351.196 76.8468 350.091 76.8468H310.091Z" fill="black"/>
</mask>
<g mask="url(#mask1_13_128)">
<path d="M308.091 77.8468V60.8468H326.791H352.091V77.8468H308.091Z" fill="#F7941D"/>
<path d="M308.091 16.8468H324.591V42.7718V61.8468L308.091 77.8468V16.8468Z" fill="#005CB9"/>
</g>
<mask id="mask2_13_128" style="mask-type:alpha" maskUnits="userSpaceOnUse" x="203" y="16" width="47" height="61">
<path d="M217.988 42.5754C217.988 41.1947 219.107 40.0754 220.488 40.0754H235.52C236.901 40.0754 238.02 41.1947 238.02 42.5754V50.2611C238.02 51.6418 236.901 52.7611 235.52 52.7611H220.488C219.107 52.7611 217.988 51.6418 217.988 50.2611V42.5754ZM219.134 61.2325C219.134 62.6132 220.253 63.7325 221.634 63.7325H246.591C247.972 63.7325 249.091 64.8518 249.091 66.2325V74.3468C249.091 75.7275 247.972 76.8468 246.591 76.8468H205.591C204.21 76.8468 203.091 75.7275 203.091 74.3468V19.3468C203.091 17.9661 204.21 16.8468 205.591 16.8468H245.527C246.908 16.8468 248.027 17.9661 248.027 19.3468V27.4611C248.027 28.8418 246.908 29.9611 245.527 29.9611H221.634C220.253 29.9611 219.134 31.0804 219.134 32.4611V61.2325Z" fill="black"/>
</mask>
<g mask="url(#mask2_13_128)">
<path d="M232.728 16.2587L239.207 9.37945L254.086 22.7041L251.306 28.0742L247.934 31.6215L232.728 16.2587Z" fill="#F7941D"/>
<path d="M176.844 39.6743L226.479 -0.43107L248.591 32.8468L263.091 61.3468L227.215 110.515L176.844 39.6743Z" fill="#005CB9"/>
</g>
<mask id="mask3_13_128" style="mask-type:alpha" maskUnits="userSpaceOnUse" x="146" y="16" width="52" height="60">
<path d="M163.266 58.8468C163.266 49.731 163.266 37.1593 163.266 32.3384C163.266 31.2338 162.371 30.3468 161.266 30.3468H148.091C146.987 30.3468 146.091 29.4514 146.091 28.3468V18.8468C146.091 17.7422 146.987 16.8468 148.091 16.8468H195.05C196.155 16.8468 197.05 17.7422 197.05 18.8468V27.8468C197.05 28.9514 196.155 29.8468 195.05 29.8468H181.502C180.397 29.8468 179.502 30.7422 179.502 31.8468V73.8918C179.502 75.307 178.091 76.2403 176.837 75.5846C172.23 73.176 163.266 67.3916 163.266 58.8468Z" fill="black"/>
</mask>
<g mask="url(#mask3_13_128)">
<path d="M143.584 17.3469L197.314 17.3469L197.314 44.8468L197.314 76.4995L146.091 76.4994L143.584 17.3469Z" fill="#F2B900"/>
<path d="M148.851 52.0297L161.591 39.3468L176.795 57.8025L188.459 74.8947L174.9 87.8473L148.851 52.0297Z" fill="#F7941D"/>
</g>
<mask id="mask4_13_128" style="mask-type:alpha" maskUnits="userSpaceOnUse" x="32" y="16" width="57" height="61">
<path d="M34.299 76.8468C33.1944 76.8468 32.299 75.9514 32.299 74.8468V18.8468C32.299 17.7422 33.1944 16.8468 34.299 16.8468H45.0528C45.655 16.8468 46.2252 17.1182 46.605 17.5855L75.8111 53.5284C76.8732 54.8354 75.9431 56.7897 74.259 56.7897H73.9867C72.8821 56.7897 71.9867 55.8942 71.9867 54.7897V18.8468C71.9867 17.7422 72.8821 16.8468 73.9867 16.8468H86.299C87.4035 16.8468 88.299 17.7422 88.299 18.8468V74.8468C88.299 75.9514 87.4035 76.8468 86.299 76.8468H75.5452C74.9429 76.8468 74.3728 76.5754 73.993 76.1081L44.7868 40.1652C43.7248 38.8582 44.6549 36.9039 46.339 36.9039H46.6113C47.7159 36.9039 48.6113 37.7994 48.6113 38.9039V74.8468C48.6113 75.9514 47.7159 76.8468 46.6113 76.8468H34.299Z" fill="black"/>
</mask>
<g mask="url(#mask4_13_128)">
<path d="M32.0912 16.8468H48.5912V42.3468V76.8468H32.0912V16.8468Z" fill="#F7941D"/>
<g filter="url(#filter0_d_13_128)">
<path d="M27.5912 17.8468L40.0912 8.84675L61.7578 36.7427L72.0912 48.8468L72.0912 73.8468L27.5912 17.8468Z" fill="#F2B900"/>
</g>
<g filter="url(#filter1_d_13_128)">
<path d="M72.0912 15.8468H90.0912V41.7718V76.8468H72.0912V15.8468Z" fill="#005CB9"/>
</g>
</g>
<mask id="mask5_13_128" style="mask-type:alpha" maskUnits="userSpaceOnUse" x="4" y="17" width="18" height="60">
<path d="M4.90543 58.8468C4.90543 49.3269 4.90543 22.5446 4.90543 17.6275C4.90543 17.2626 5.28153 17.0251 5.60803 17.1881C8.72395 18.7445 21.1414 25.4133 21.1414 32.8468C21.1414 40.6064 21.1414 70.8669 21.1414 76.08C21.1414 76.4449 20.7656 76.6676 20.4402 76.5022C17.3267 74.9197 4.90543 68.0308 4.90543 58.8468Z" fill="black"/>
</mask>
<g mask="url(#mask5_13_128)">
<g filter="url(#filter2_d_13_128)">
<path d="M-46.5927 47.8327L-0.607621 10.2279L20.3178 45.1444L39.7334 78.3893L-1.86604 116.568L-46.5927 47.8327Z" fill="#005CB9"/>
</g>
<path d="M-6.41805 17.9686L0.711471 13.6436L23.6385 41.7285L45.232 68.2767L40.3562 74.5921L-6.41805 17.9686Z" fill="#F7941D"/>
<path d="M-6.57239 8.27052L1.8435 2.96053L26.2309 33.03L49.1936 61.4592L43.2241 68.8602L-6.57239 8.27052Z" fill="#F2B900"/>
</g>
<mask id="mask6_13_128" style="mask-type:alpha" maskUnits="userSpaceOnUse" x="95" y="16" width="50" height="61">
<path d="M118.929 76.9948C114.228 76.9948 109.69 76.4208 105.317 75.2728C101.709 74.2681 98.6543 73.0344 96.1528 71.5718C95.3174 71.0833 95.0253 70.0377 95.4189 69.1536L99.1241 60.8312C99.6215 59.7139 100.996 59.3039 102.07 59.8887C104.14 61.0157 106.425 61.9891 108.925 62.8088C112.314 63.8475 115.676 64.3668 119.011 64.3668C121.252 64.3668 123.056 64.1755 124.423 63.7928C125.79 63.3555 126.774 62.8088 127.375 62.1528C128.031 61.4422 128.359 60.6222 128.359 59.6928C128.359 58.3808 127.758 57.3422 126.555 56.5768C125.352 55.8115 123.794 55.1828 121.881 54.6908C119.968 54.1988 117.836 53.7068 115.485 53.2148C113.189 52.7228 110.866 52.0942 108.515 51.3288C106.219 50.5635 104.114 49.5795 102.201 48.3768C100.288 47.1195 98.7297 45.5068 97.527 43.5388C96.3243 41.5162 95.723 38.9742 95.723 35.9128C95.723 32.4688 96.6523 29.3528 98.511 26.5648C100.424 23.7768 103.267 21.5355 107.039 19.8408C110.811 18.1462 115.43 16.8468 121.061 16.8468C124.833 16.8468 128.605 17.7362 132.213 18.6108C135.394 19.3819 140.643 22.0854 142.153 23.7426C142.469 24.0899 142.444 24.5836 142.259 25.0156L138.814 33.0776C138.352 34.1596 137.061 34.6082 136.013 34.0737C133.631 32.8591 130.935 31.6278 128.851 31.0748C126.172 30.3095 123.576 29.9268 121.061 29.9268C118.82 29.9268 117.016 30.1728 115.649 30.6648C114.282 31.1022 113.298 31.7035 112.697 32.4688C112.096 33.2342 111.795 34.1088 111.795 35.0928C111.795 36.3502 112.369 37.3615 113.517 38.1268C114.72 38.8375 116.278 39.4388 118.191 39.9308C120.159 40.3682 122.291 40.8328 124.587 41.3248C126.938 41.8168 129.261 42.4455 131.557 43.2108C133.908 43.9215 136.04 44.9055 137.953 46.1628C139.866 47.3655 141.397 48.9782 142.545 51.0008C143.748 52.9688 144.349 55.4562 144.349 58.4628C144.349 61.7975 143.392 64.8862 141.479 67.7288C139.62 70.5168 136.805 72.7582 133.033 74.4528C129.316 76.1475 124.614 76.9948 118.929 76.9948Z" fill="#F7941D"/>
</mask>
<g mask="url(#mask6_13_128)">
<path d="M76.2632 46.2912L99.6462 27.7896L118.395 54.8837L135.923 80.6015L115.418 100.178L76.2632 46.2912Z" fill="#005CB9"/>
<path d="M88.9955 30.7986L127.703 -0.802621L146.004 29.3797L162.996 58.1104L128.035 90.2608L88.9955 30.7986Z" fill="#F2B900"/>
</g>
<mask id="mask7_13_128" style="mask-type:alpha" maskUnits="userSpaceOnUse" x="354" y="16" width="64" height="61">
<path d="M385.989 76.5428C381.397 76.5428 377.161 75.8048 373.279 74.3288C369.398 72.8528 366.009 70.7755 363.111 68.0968C360.269 65.3635 358.055 62.1928 356.469 58.5848C354.884 54.9768 354.091 51.0135 354.091 46.6948C354.091 42.3761 354.884 38.4128 356.469 34.8048C358.055 31.1968 360.269 28.0535 363.111 25.3748C366.009 22.6415 369.398 20.5368 373.279 19.0608C377.161 17.5848 381.397 16.8468 385.989 16.8468C390.636 16.8468 394.873 17.5848 398.699 19.0608C402.581 20.5368 405.943 22.6415 408.785 25.3748C411.628 28.0535 413.842 31.1968 415.427 34.8048C417.067 38.4128 417.887 42.3761 417.887 46.6948C417.887 51.0135 417.067 55.0041 415.427 58.6668C413.842 62.2748 411.628 65.4181 408.785 68.0968C405.943 70.7755 402.581 72.8528 398.699 74.3288C394.873 75.8048 390.636 76.5428 385.989 76.5428ZM385.989 63.0948C388.176 63.0948 390.199 62.7121 392.057 61.9468C393.971 61.1815 395.611 60.0881 396.977 58.6668C398.399 57.1908 399.492 55.4415 400.257 53.4188C401.077 51.3961 401.487 49.1548 401.487 46.6948C401.487 44.1801 401.077 41.9388 400.257 39.9708C399.492 37.9481 398.399 36.2261 396.977 34.8048C395.611 33.3288 393.971 32.2081 392.057 31.4428C390.199 30.6775 388.176 30.2948 385.989 30.2948C383.803 30.2948 381.753 30.6775 379.839 31.4428C377.981 32.2081 376.341 33.3288 374.919 34.8048C373.553 36.2261 372.459 37.9481 371.639 39.9708C370.874 41.9388 370.491 44.1801 370.491 46.6948C370.491 49.1548 370.874 51.3961 371.639 53.4188C372.459 55.4415 373.553 57.1908 374.919 58.6668C376.341 60.0881 377.981 61.1815 379.839 61.9468C381.753 62.7121 383.803 63.0948 385.989 63.0948Z" fill="black"/>
</mask>
<g mask="url(#mask7_13_128)">
<g filter="url(#filter3_d_13_128)">
<path d="M342.389 40.8327L388.374 3.22793L409.299 38.1444L428.715 71.3893L387.115 109.568L342.389 40.8327Z" fill="#005CB9"/>
</g>
<path d="M382.563 10.9686L389.693 6.64363L412.62 34.7285L434.213 61.2767L429.338 67.5921L382.563 10.9686Z" fill="#F7941D"/>
<path d="M382.409 1.27052L390.825 -4.03947L415.212 26.03L438.175 54.4592L432.205 61.8602L382.409 1.27052Z" fill="#F2B900"/>
</g>
<g filter="url(#filter4_d_13_128)">
<g filter="url(#filter5_d_13_128)">
<path d="M20.6559 16.0947C20.6559 16.0947 13.4873 17.6453 9.27382 15.4323C5.0603 13.2192 3.34405 4.16988 3.34405 4.16988C3.34405 4.16988 10.586 2.65779 14.7995 4.87084C19.0131 7.08389 20.6559 16.0947 20.6559 16.0947Z" fill="#005CB9"/>
<path d="M14.7782 4.91258C15.8214 5.46064 16.7088 6.43138 17.4531 7.5838C18.197 8.73587 18.796 10.0663 19.264 11.329C19.7319 12.5915 20.0686 13.785 20.2882 14.6632C20.3979 15.1023 20.4783 15.4628 20.5313 15.7131C20.5578 15.8381 20.5775 15.936 20.5905 16.0023C20.5948 16.0242 20.5984 16.0427 20.6013 16.0576C20.5909 16.0597 20.5787 16.0632 20.5649 16.066C20.5116 16.0768 20.4326 16.0919 20.3309 16.1108C20.1272 16.1488 19.8315 16.2011 19.4634 16.2564C18.7267 16.367 17.7003 16.4914 16.5428 16.5469C14.2259 16.6578 11.391 16.4915 9.2958 15.3912C8.2524 14.8432 7.36007 13.8698 6.60884 12.7136C5.8579 11.5579 5.24914 10.2224 4.77196 8.95479C4.29487 7.68738 3.94962 6.48837 3.72318 5.60657C3.61007 5.16606 3.52684 4.8047 3.4718 4.55348C3.44429 4.42791 3.42356 4.32951 3.41001 4.2629C3.40538 4.24018 3.40101 4.22109 3.39798 4.20585C3.40856 4.20374 3.42142 4.20193 3.43564 4.19916C3.48942 4.18868 3.56882 4.17367 3.67132 4.15527C3.8771 4.11833 4.17652 4.06823 4.54832 4.01472C5.29196 3.90771 6.32737 3.788 7.49397 3.73739C9.82945 3.63608 12.683 3.81211 14.7782 4.91258Z" stroke="black" stroke-opacity="0.4" stroke-width="0.0933852"/>
</g>
<g filter="url(#filter6_d_13_128)">
<path d="M20.0163 15.4992C20.0163 15.4992 14.7841 16.631 11.7087 15.0157C8.63338 13.4005 7.38073 6.79557 7.38073 6.79557C7.38073 6.79557 12.6665 5.69193 15.7418 7.30718C18.8172 8.92243 20.0163 15.4992 20.0163 15.4992Z" fill="#F7941D"/>
<path d="M15.72 7.34869C16.4789 7.74727 17.1254 8.45373 17.6681 9.29403C18.2105 10.1339 18.6477 11.104 18.989 12.0252C19.3303 12.9461 19.5752 13.8172 19.7354 14.4579C19.8154 14.7778 19.874 15.0403 19.9127 15.2228C19.9321 15.314 19.9469 15.386 19.9564 15.4343C19.9584 15.4447 19.9599 15.4541 19.9615 15.4624C19.9571 15.4633 19.9525 15.465 19.9475 15.466C19.9086 15.4739 19.8512 15.4851 19.777 15.499C19.6286 15.5266 19.4127 15.5642 19.1443 15.6045C18.6069 15.6852 17.8574 15.7762 17.0131 15.8166C15.3225 15.8975 13.2563 15.776 11.7303 14.9745C10.9715 14.576 10.322 13.8678 9.77439 13.025C9.22697 12.1825 8.783 11.2078 8.4349 10.283C8.08705 9.3589 7.83511 8.48486 7.66993 7.84169C7.58734 7.52007 7.52629 7.25557 7.48614 7.07229C7.46613 6.98096 7.45107 6.90967 7.4412 6.86117C7.43899 6.85034 7.43734 6.84029 7.43564 6.83177C7.44002 6.83091 7.44509 6.83041 7.45009 6.82943C7.48933 6.82179 7.54739 6.81085 7.62224 6.79741C7.77231 6.77048 7.99035 6.73317 8.26151 6.69415C8.80396 6.61609 9.55948 6.52942 10.4104 6.4925C12.1145 6.4186 14.1939 6.54717 15.72 7.34869Z" stroke="black" stroke-opacity="0.4" stroke-width="0.0933852"/>
</g>
<g filter="url(#filter7_d_13_128)">
<path d="M19.1062 14.645C19.1062 14.645 15.8891 15.3409 13.9982 14.3477C12.1073 13.3546 11.3371 9.29346 11.3371 9.29346C11.3371 9.29346 14.5871 8.61487 16.478 9.60803C18.3689 10.6012 19.1062 14.645 19.1062 14.645Z" fill="#F2B900"/>
<path d="M16.4565 9.64965C16.9191 9.89272 17.3141 10.3244 17.6469 10.8397C17.9794 11.3546 18.2479 11.9496 18.4576 12.5152C18.6672 13.0807 18.8176 13.6156 18.9159 14.0091C18.9651 14.2057 19.0013 14.3669 19.025 14.4789C19.0368 14.5344 19.0456 14.5779 19.0514 14.6075C19.028 14.6122 18.9958 14.6191 18.9555 14.6266C18.8644 14.6436 18.7322 14.6672 18.5675 14.6919C18.2375 14.7415 17.7776 14.7974 17.2594 14.8223C16.2206 14.872 14.9538 14.7971 14.0199 14.3066C13.5571 14.0636 13.1594 13.6305 12.8235 13.1134C12.4879 12.5969 12.2166 11.9993 12.0028 11.4315C11.7892 10.864 11.6334 10.3273 11.5319 9.93223C11.4812 9.73471 11.4445 9.57222 11.4198 9.45971C11.4075 9.40361 11.3977 9.35996 11.3917 9.33022C11.4152 9.32568 11.4476 9.31971 11.4881 9.31244C11.5802 9.29591 11.7147 9.27376 11.8812 9.2498C12.2143 9.20186 12.6781 9.14805 13.2006 9.12538C14.2478 9.07995 15.5225 9.15911 16.4565 9.64965Z" stroke="black" stroke-opacity="0.25" stroke-width="0.0933852"/>
</g>
</g>
<defs>
<filter id="filter0_d_13_128" x="23.5912" y="6.8468" width="52.5" height="73" filterUnits="userSpaceOnUse" color-interpolation-filters="sRGB">
<feFlood flood-opacity="0" result="BackgroundImageFix"/>
<feColorMatrix in="SourceAlpha" type="matrix" values="0 0 0 0 0 0 0 0 0 0 0 0 0 0 0 0 0 0 127 0" result="hardAlpha"/>
<feOffset dy="2"/>
<feGaussianBlur stdDeviation="2"/>
<feComposite in2="hardAlpha" operator="out"/>
<feColorMatrix type="matrix" values="0 0 0 0 0 0 0 0 0 0 0 0 0 0 0 0 0 0 0.25 0"/>
<feBlend mode="normal" in2="BackgroundImageFix" result="effect1_dropShadow_13_128"/>
<feBlend mode="normal" in="SourceGraphic" in2="effect1_dropShadow_13_128" result="shape"/>
</filter>
<filter id="filter1_d_13_128" x="66.0912" y="11.8468" width="26" height="69" filterUnits="userSpaceOnUse" color-interpolation-filters="sRGB">
<feFlood flood-opacity="0" result="BackgroundImageFix"/>
<feColorMatrix in="SourceAlpha" type="matrix" values="0 0 0 0 0 0 0 0 0 0 0 0 0 0 0 0 0 0 127 0" result="hardAlpha"/>
<feOffset dx="-2"/>
<feGaussianBlur stdDeviation="2"/>
<feComposite in2="hardAlpha" operator="out"/>
<feColorMatrix type="matrix" values="0 0 0 0 0 0 0 0 0 0 0 0 0 0 0 0 0 0 0.25 0"/>
<feBlend mode="normal" in2="BackgroundImageFix" result="effect1_dropShadow_13_128"/>
<feBlend mode="normal" in="SourceGraphic" in2="effect1_dropShadow_13_128" result="shape"/>
</filter>
<filter id="filter2_d_13_128" x="-50.5927" y="8.22791" width="94.326" height="114.34" filterUnits="userSpaceOnUse" color-interpolation-filters="sRGB">
<feFlood flood-opacity="0" result="BackgroundImageFix"/>
<feColorMatrix in="SourceAlpha" type="matrix" values="0 0 0 0 0 0 0 0 0 0 0 0 0 0 0 0 0 0 127 0" result="hardAlpha"/>
<feOffset dy="2"/>
<feGaussianBlur stdDeviation="2"/>
<feComposite in2="hardAlpha" operator="out"/>
<feColorMatrix type="matrix" values="0 0 0 0 0 0 0 0 0 0 0 0 0 0 0 0 0 0 0.25 0"/>
<feBlend mode="normal" in2="BackgroundImageFix" result="effect1_dropShadow_13_128"/>
<feBlend mode="normal" in="SourceGraphic" in2="effect1_dropShadow_13_128" result="shape"/>
</filter>
<filter id="filter3_d_13_128" x="338.389" y="1.22791" width="94.326" height="114.34" filterUnits="userSpaceOnUse" color-interpolation-filters="sRGB">
<feFlood flood-opacity="0" result="BackgroundImageFix"/>
<feColorMatrix in="SourceAlpha" type="matrix" values="0 0 0 0 0 0 0 0 0 0 0 0 0 0 0 0 0 0 127 0" result="hardAlpha"/>
<feOffset dy="2"/>
<feGaussianBlur stdDeviation="2"/>
<feComposite in2="hardAlpha" operator="out"/>
<feColorMatrix type="matrix" values="0 0 0 0 0 0 0 0 0 0 0 0 0 0 0 0 0 0 0.25 0"/>
<feBlend mode="normal" in2="BackgroundImageFix" result="effect1_dropShadow_13_128"/>
<feBlend mode="normal" in="SourceGraphic" in2="effect1_dropShadow_13_128" result="shape"/>
</filter>
<filter id="filter4_d_13_128" x="-0.280156" y="0" width="24.7471" height="21.0117" filterUnits="userSpaceOnUse" color-interpolation-filters="sRGB">
<feFlood flood-opacity="0" result="BackgroundImageFix"/>
<feColorMatrix in="SourceAlpha" type="matrix" values="0 0 0 0 0 0 0 0 0 0 0 0 0 0 0 0 0 0 127 0" result="hardAlpha"/>
<feOffset dx="0.0933852" dy="0.373541"/>
<feGaussianBlur stdDeviation="0.18677"/>
<feComposite in2="hardAlpha" operator="out"/>
<feColorMatrix type="matrix" values="0 0 0 0 0 0 0 0 0 0 0 0 0 0 0 0 0 0 0.25 0"/>
<feBlend mode="normal" in2="BackgroundImageFix" result="effect1_dropShadow_13_128"/>
<feBlend mode="normal" in="SourceGraphic" in2="effect1_dropShadow_13_128" result="shape"/>
</filter>
<filter id="filter5_d_13_128" x="2.33549" y="2.84386" width="18.3952" height="14.0404" filterUnits="userSpaceOnUse" color-interpolation-filters="sRGB">
<feFlood flood-opacity="0" result="BackgroundImageFix"/>
<feColorMatrix in="SourceAlpha" type="matrix" values="0 0 0 0 0 0 0 0 0 0 0 0 0 0 0 0 0 0 127 0" result="hardAlpha"/>
<feOffset dx="-0.466926" dy="-0.280156"/>
<feGaussianBlur stdDeviation="0.270817"/>
<feComposite in2="hardAlpha" operator="out"/>
<feColorMatrix type="matrix" values="0 0 0 0 0 0 0 0 0 0 0 0 0 0 0 0 0 0 0.25 0"/>
<feBlend mode="normal" in2="BackgroundImageFix" result="effect1_dropShadow_13_128"/>
<feBlend mode="normal" in="SourceGraphic" in2="effect1_dropShadow_13_128" result="shape"/>
</filter>
<filter id="filter6_d_13_128" x="6.55895" y="5.88598" width="13.4573" height="9.99867" filterUnits="userSpaceOnUse" color-interpolation-filters="sRGB">
<feFlood flood-opacity="0" result="BackgroundImageFix"/>
<feColorMatrix in="SourceAlpha" type="matrix" values="0 0 0 0 0 0 0 0 0 0 0 0 0 0 0 0 0 0 127 0" result="hardAlpha"/>
<feOffset dx="-0.747082" dy="-0.466926"/>
<feGaussianBlur stdDeviation="0.0373541"/>
<feComposite in2="hardAlpha" operator="out"/>
<feColorMatrix type="matrix" values="0 0 0 0 0 0 0 0 0 0 0 0 0 0 0 0 0 0 0.25 0"/>
<feBlend mode="normal" in2="BackgroundImageFix" result="effect1_dropShadow_13_128"/>
<feBlend mode="normal" in="SourceGraphic" in2="effect1_dropShadow_13_128" result="shape"/>
</filter>
<filter id="filter7_d_13_128" x="10.7768" y="8.6936" width="8.32942" height="6.18836" filterUnits="userSpaceOnUse" color-interpolation-filters="sRGB">
<feFlood flood-opacity="0" result="BackgroundImageFix"/>
<feColorMatrix in="SourceAlpha" type="matrix" values="0 0 0 0 0 0 0 0 0 0 0 0 0 0 0 0 0 0 127 0" result="hardAlpha"/>
<feOffset dx="-0.560311" dy="-0.373541"/>
<feComposite in2="hardAlpha" operator="out"/>
<feColorMatrix type="matrix" values="0 0 0 0 0 0 0 0 0 0 0 0 0 0 0 0 0 0 0.25 0"/>
<feBlend mode="normal" in2="BackgroundImageFix" result="effect1_dropShadow_13_128"/>
<feBlend mode="normal" in="SourceGraphic" in2="effect1_dropShadow_13_128" result="shape"/>
</filter>
</defs>
</svg>
